<svg width="44" height="46" viewBox="0 0 44 46" fill="none" xmlns="http://www.w3.org/2000/svg">
<path d="M17.9171 43.3215L21.1027 37.8149L25.7024 45.7681L31.5034 42.4254L23.4425 28.4901H18.7618L12.1161 39.979L17.9171 43.3215Z" fill="black"/>
<path d="M2.14032 29.7432L8.51098 29.7435L3.91046 37.6962L9.71118 41.0395L17.7712 27.1038L15.4309 23.0577L2.14008 23.0573L2.14032 29.7432Z" fill="black"/>
<path d="M6.03306 9.31624L9.21803 14.8235L0.0178198 14.8229L0.0175781 21.5089L16.1386 21.5084L18.4789 17.4623L11.8338 5.97307L6.03306 9.31624Z" fill="black"/>
<path d="M25.7024 2.46763L22.5167 7.97443L17.9171 0.0212402L12.1161 3.36392L20.177 17.2992H24.8577L31.5034 5.81032L25.7024 2.46763Z" fill="black"/>
<path d="M41.4791 16.0461L35.1084 16.0457L39.7089 8.09299L33.9082 4.74983L25.8481 18.6855L28.1885 22.7317L41.4793 22.7319L41.4791 16.0461Z" fill="black"/>
<path d="M37.5864 36.473L34.4014 30.9658L43.6016 30.9663L43.6018 24.2804L27.4809 24.2809L25.1405 28.327L31.7857 39.8163L37.5864 36.473Z" fill="black"/>
</svg>
