<svg width="32" height="32" viewBox="0 0 32 32" fill="none" xmlns="http://www.w3.org/2000/svg">
<rect x="4" y="10" width="25" height="13" fill="white"/>
<path fill-rule="evenodd" clip-rule="evenodd" d="M0 15.9566C0 10.1846 4.67919 5.50537 10.4513 5.50537H21.5487C27.3208 5.50537 32 10.1846 32 15.9566C32 21.7287 27.3208 26.4079 21.5487 26.4079H10.4513C4.67919 26.4079 0 21.7287 0 15.9566ZM16.2594 15.9566C16.2594 19.1421 13.6845 21.7243 10.5081 21.7243C7.33173 21.7243 4.75676 19.1421 4.75676 15.9566C4.75676 12.7712 7.33173 10.1889 10.5081 10.1889C13.6845 10.1889 16.2594 12.7712 16.2594 15.9566ZM18.0756 21.5509L27.8486 15.9566L18.0756 10.3624V21.5509Z" fill="#F230AA"/>
</svg>
